<?xml version="1.0" encoding="UTF-8"?>
<svg width="112px" height="112px" viewBox="0 0 112 112" version="1.1" xmlns="http://www.w3.org/2000/svg" xmlns:xlink="http://www.w3.org/1999/xlink">
    <title>7D571E17-700E-4B38-9100-04F66E9D2C7F</title>
    <g id="Abonelik-Sistemi" stroke="none" stroke-width="1" fill="none" fill-rule="evenodd">
        <g id="Abonelik-Sistemi-Sayfası" transform="translate(-357.000000, -2269.000000)">
            <g id="Group-28" transform="translate(357.000000, 2269.000000)">
                <circle id="Oval-Copy-4" fill="#F8FCFF" cx="56" cy="56" r="56"></circle>
                <g id="3058953" transform="translate(18.000000, 19.000000)" fill-rule="nonzero">
                    <circle id="Oval" fill="#E9ECEF" cx="37.5" cy="37.5" r="37.5"></circle>
                    <g id="Group" transform="translate(11.865234, 7.031250)">
                        <path d="M39.6952148,48.7104492 L4.83413086,48.7104492 C2.22597656,48.7104492 0.111621094,46.5960937 0.111621094,43.9879395 C0.111621094,41.3797852 2.22597656,39.2654297 4.83413086,39.2654297 L39.6952148,39.2654297 C42.3033691,39.2654297 44.4177246,41.3797852 44.4177246,43.9879395 C44.4177246,46.5960938 42.3033691,48.7104492 39.6952148,48.7104492 Z" id="Path" fill="#0091C8"></path>
                        <path d="M43.1409668,19.898584 L45.5712891,17.4682617 L48.0016113,19.898584 L50.4319336,17.4682617 L50.5650879,17.601416 L50.5650879,5.92045898 C50.5650879,2.71230469 47.9644043,0.111474609 44.7561035,0.111474609 L28.204834,0.111474609 L28.204834,20.3015625 L37.8771973,20.3015625 L40.7106445,17.4681152 L43.1409668,19.898584 Z" id="Path" fill="#AFE6FF"></path>
                        <path d="M37.8771973,20.301709 L40.7106445,17.4682617 L42.2091797,18.9667969 L42.2091797,5.92045898 C42.2091797,3.27875977 43.9731445,1.05043945 46.3870605,0.345263672 C45.8693848,0.194091797 45.3224121,0.111474609 44.755957,0.111474609 L28.204834,0.111474609 L28.204834,20.301709 L37.8771973,20.301709 L37.8771973,20.301709 Z" id="Path" fill="#94DEFF"></path>
                        <path d="M38.6087402,45.6344238 L5.87197266,45.6344238 C5.0269043,45.6344238 4.34179688,44.9493164 4.34179688,44.104248 C4.34179688,43.2591797 5.0269043,42.5740723 5.87197266,42.5740723 L38.6088867,42.5740723 C39.4539551,42.5740723 40.1390625,43.2591797 40.1390625,44.104248 C40.1390625,44.9493164 39.4539551,45.6344238 38.6087402,45.6344238 L38.6087402,45.6344238 Z" id="Path" fill="#0073AA"></path>
                        <path d="M44.4177246,0.111474609 L11.6808105,0.111474609 C8.47265625,0.111474609 5.87182617,2.7121582 5.87182617,5.92045898 L5.87182617,44.104248 L38.6085937,44.104248 L38.6085937,5.92045898 C38.6087402,2.71230469 41.2094238,0.111474609 44.4177246,0.111474609 Z" id="Path" fill="#FFFFFF"></path>
                        <path d="M16.3614258,0.111474609 L11.6808105,0.111474609 C8.47265625,0.111474609 5.87182617,2.7121582 5.87182617,5.92045898 L5.87182617,44.104248 L10.5524414,44.104248 L10.5524414,5.92045898 C10.5524414,2.71230469 13.1532715,0.111474609 16.3614258,0.111474609 Z" id="Path" fill="#E1FAFF"></path>
                        <polygon id="Path" fill="#6EE1FF" points="10.5525879 10.1031738 23.8869141 10.1031738 23.8869141 13.1704102 10.5525879 13.1704102"></polygon>
                        <polygon id="Path" fill="#FE646F" points="29.3453613 10.1031738 34.0290527 10.1031738 34.0290527 13.1704102 29.3453613 13.1704102"></polygon>
                        <polygon id="Path" fill="#6EE1FF" points="10.5525879 18.473584 23.8869141 18.473584 23.8869141 21.5408203 10.5525879 21.5408203"></polygon>
                        <polygon id="Path" fill="#FE646F" points="29.3453613 18.473584 34.0290527 18.473584 34.0290527 21.5408203 29.3453613 21.5408203"></polygon>
                        <polygon id="Path" fill="#6EE1FF" points="10.5525879 27.0994629 23.8869141 27.0994629 23.8869141 30.1666992 10.5525879 30.1666992"></polygon>
                        <polygon id="Path" fill="#FE646F" points="29.3453613 27.0994629 34.0290527 27.0994629 34.0290527 30.1666992 29.3453613 30.1666992"></polygon>
                    </g>
                    <g id="Group" transform="translate(25.341797, 45.117188)">
                        <polygon id="Path" fill="#5D913F" points="0.0770507813 0.0156738281 39.4054688 0.0156738281 39.4054688 19.0384277 0.0770507813 19.0384277"></polygon>
                        <path d="M37.1094727,2.31166992 L37.1094727,16.7425781 L2.37290039,16.7425781 L2.37290039,2.31166992 L37.1094727,2.31166992 Z M39.4054687,0.0156738281 L0.0770507812,0.0156738281 L0.0770507812,19.0384277 L39.4054687,19.0384277 L39.4054687,0.0156738281 Z" id="Shape" fill="#3D772A"></path>
                        <path d="M0.0770507813,5.42109375 C0.704882813,5.86010742 1.46835938,6.11835937 2.29262695,6.11835937 C4.43129883,6.11835937 6.16508789,4.38457031 6.16508789,2.24589844 C6.16508789,1.41518555 5.90273438,0.646289062 5.45742188,0.0156738281 L0.0769042969,0.0156738281 L0.0769042969,5.42109375 L0.0770507813,5.42109375 Z" id="Path" fill="#3D772A"></path>
                        <path d="M2.29262695,12.994043 C1.46835938,12.994043 0.704882813,13.2522949 0.0770507813,13.6913086 L0.0770507813,19.0385742 L5.49887695,19.0385742 C5.91928711,18.4190918 6.16508789,17.671582 6.16508789,16.8666504 C6.16508789,14.727832 4.43129883,12.994043 2.29262695,12.994043 Z" id="Path" fill="#3D772A"></path>
                        <path d="M32.8986328,2.24589844 C32.8986328,4.38457031 34.6324219,6.11835937 36.7710938,6.11835937 C37.7887207,6.11835937 38.7143555,5.72519531 39.4054687,5.0831543 L39.4054687,0.0156738281 L33.6062988,0.0156738281 C33.1609863,0.646435547 32.8986328,1.41533203 32.8986328,2.24589844 L32.8986328,2.24589844 Z" id="Path" fill="#3D772A"></path>
                        <path d="M39.4054687,14.0291016 C38.7143555,13.3870605 37.7888672,12.9938965 36.7710937,12.9938965 C34.6324219,12.9938965 32.8986328,14.7276855 32.8986328,16.8663574 C32.8986328,17.6714355 33.1444336,18.4189453 33.5648437,19.0382812 L39.4054687,19.0382812 L39.4054687,14.0291016 Z" id="Path" fill="#3D772A"></path>
                        <circle id="Oval" fill="#3D772A" cx="19.7412598" cy="9.52705078" r="6.46464844"></circle>
                        <polygon id="Path" fill="#6EAA50" points="4.01660156 8.30258789 11.4445312 8.30258789 11.4445312 10.7515137 4.01660156 10.7515137"></polygon>
                        <polygon id="Path" fill="#6EAA50" points="28.0472168 8.30258789 35.4751465 8.30258789 35.4751465 10.7515137 28.0472168 10.7515137"></polygon>
                        <path d="M19.3060547,12.9672363 C18.6174316,12.9462891 18.0539062,12.8208984 17.5114746,12.5705566 L17.5114746,11.0157715 L18.5444824,10.9426758 L18.5444824,11.5479492 C18.5444824,11.7357422 18.5756836,11.8088379 18.7530762,11.8713867 C18.8991211,11.9236816 19.0974609,11.9548828 19.3060547,11.9548828 L19.3060547,10.003418 C18.3461426,9.7425293 17.480127,9.3355957 17.480127,8.1253418 C17.480127,7.08178711 18.1999512,6.38276367 19.3060547,6.22617188 L19.3060547,5.26625977 L20.0887207,5.26625977 L20.0887207,6.20537109 C20.6522461,6.23657227 21.1946777,6.36196289 21.7062012,6.60175781 L21.7062012,8.07290039 L20.6834473,8.1355957 L20.6834473,7.57207031 C20.6834473,7.38427734 20.6522461,7.31118164 20.4748535,7.24863281 C20.3600098,7.21743164 20.2245117,7.1859375 20.0887207,7.17553711 L20.0887207,9.01186523 L20.0992676,9.01186523 C21.0174316,9.29370117 21.9773437,9.70063477 21.9773437,10.9633301 C21.9773437,12.0900879 21.1946777,12.768457 20.0887207,12.9353027 L20.0887207,14.0100586 L19.3060547,14.0100586 L19.3060547,12.9672363 Z M19.3060547,8.74101563 L19.3060547,7.23852539 C18.9722168,7.35336914 18.7634766,7.59316406 18.7634766,8.01064453 C18.763623,8.38637695 18.9722168,8.58457031 19.3060547,8.74101563 Z M20.0887207,10.2541992 L20.0887207,11.8819336 C20.4436523,11.7670898 20.6834473,11.5062012 20.6834473,11.0157715 C20.6834473,10.6193848 20.4436523,10.4002441 20.0887207,10.2541992 Z" id="Shape" fill="#6EAA50"></path>
                    </g>
                    <g id="Group" transform="translate(30.468750, 50.097656)">
                        <polygon id="Path" fill="#97D729" points="0.119970703 0.06328125 39.4483887 0.06328125 39.4483887 19.0860352 0.119970703 19.0860352"></polygon>
                        <path d="M37.1523926,2.35927734 L37.1523926,16.7901855 L2.41582031,16.7901855 L2.41582031,2.35927734 L37.1523926,2.35927734 Z M39.4483887,0.06328125 L0.119970703,0.06328125 L0.119970703,19.0860352 L39.4483887,19.0860352 L39.4483887,0.06328125 Z" id="Shape" fill="#6EAA50"></path>
                        <path d="M0.119970703,5.46870117 C0.747802734,5.90771484 1.5112793,6.1659668 2.33554687,6.1659668 C4.47421875,6.1659668 6.20800781,4.43217773 6.20800781,2.29350586 C6.20800781,1.46279297 5.9456543,0.693896484 5.5003418,0.06328125 L0.119824219,0.06328125 L0.119824219,5.46870117 L0.119970703,5.46870117 Z" id="Path" fill="#6EAA50"></path>
                        <path d="M2.33554687,13.0415039 C1.5112793,13.0415039 0.747802734,13.2997559 0.119970703,13.7387695 L0.119970703,19.0860352 L5.54179688,19.0860352 C5.96220703,18.4665527 6.20800781,17.719043 6.20800781,16.9141113 C6.20800781,14.775293 4.47421875,13.0415039 2.33554687,13.0415039 Z" id="Path" fill="#6EAA50"></path>
                        <path d="M32.9415527,2.29350586 C32.9415527,4.43217773 34.6753418,6.1659668 36.8140137,6.1659668 C37.8316406,6.1659668 38.7572754,5.77280273 39.4483887,5.13076172 L39.4483887,0.06328125 L33.6492187,0.06328125 C33.2039062,0.693896484 32.9415527,1.46279297 32.9415527,2.29350586 L32.9415527,2.29350586 Z" id="Path" fill="#6EAA50"></path>
                        <path d="M39.4483887,14.076709 C38.7572754,13.434668 37.8317871,13.0415039 36.8140137,13.0415039 C34.6753418,13.0415039 32.9415527,14.775293 32.9415527,16.9139648 C32.9415527,17.719043 33.1873535,18.4665527 33.6077637,19.0858887 L39.4483887,19.0858887 L39.4483887,14.076709 Z" id="Path" fill="#6EAA50"></path>
                        <circle id="Oval" fill="#6EAA50" cx="19.7841797" cy="9.5746582" r="6.46464844"></circle>
                        <polygon id="Path" fill="#8BC727" points="4.05952148 8.35019531 11.4874512 8.35019531 11.4874512 10.7991211 4.05952148 10.7991211"></polygon>
                        <polygon id="Path" fill="#8BC727" points="28.0901367 8.35019531 35.5180664 8.35019531 35.5180664 10.7991211 28.0901367 10.7991211"></polygon>
                        <path d="M19.3489746,13.0146973 C18.6603516,12.99375 18.0968262,12.8683594 17.5543945,12.6180176 L17.5543945,11.0632324 L18.5874023,10.9901367 L18.5874023,11.5954102 C18.5874023,11.7832031 18.6186035,11.8562988 18.7959961,11.9188477 C18.942041,11.9711426 19.1403809,12.0023437 19.3489746,12.0023437 L19.3489746,10.0508789 C18.3890625,9.78999023 17.5230469,9.38305664 17.5230469,8.17280273 C17.5230469,7.12924805 18.2428711,6.43022461 19.3489746,6.27363281 L19.3489746,5.3137207 L20.1316406,5.3137207 L20.1316406,6.25283203 C20.695166,6.2840332 21.2375977,6.40942383 21.7491211,6.64921875 L21.7491211,8.12036133 L20.7263672,8.18305664 L20.7263672,7.61953125 C20.7263672,7.43173828 20.695166,7.35864258 20.5177734,7.29609375 C20.4029297,7.26489258 20.2674316,7.23339844 20.1316406,7.22299805 L20.1316406,9.05932617 L20.1421875,9.05932617 C21.0603516,9.34116211 22.0202637,9.7480957 22.0202637,11.010791 C22.0202637,12.1375488 21.2375977,12.815918 20.1316406,12.9827637 L20.1316406,14.0575195 L19.3489746,14.0575195 L19.3489746,13.0146973 Z M19.3489746,8.78847656 L19.3489746,7.28613281 C19.0151367,7.40097656 18.8063965,7.64077148 18.8063965,8.05825195 C18.8063965,8.43383789 19.0149902,8.63217773 19.3489746,8.78847656 L19.3489746,8.78847656 Z M20.1316406,10.3016602 L20.1316406,11.9293945 C20.4865723,11.8145508 20.7263672,11.5536621 20.7263672,11.0632324 C20.7263672,10.6668457 20.4864258,10.4478516 20.1316406,10.3016602 Z" id="Shape" fill="#97D729"></path>
                    </g>
                    <g id="Group" transform="translate(5.712891, 57.421875)">
                        <circle id="Oval" fill="#FEE45A" cx="8.25249023" cy="8.30493164" r="8.19477539"></circle>
                        <path d="M8.25249023,2.94931641 C11.6569336,2.94931641 14.4503906,5.55908203 14.7449707,8.88706055 C14.7619629,8.69516602 14.7722168,8.5012207 14.7722168,8.30493164 C14.7722168,4.70419922 11.8532227,1.78520508 8.25249023,1.78520508 C4.65175781,1.78520508 1.73276367,4.70419922 1.73276367,8.30493164 C1.73276367,8.5012207 1.74301758,8.69501953 1.76000977,8.88706055 C2.05458984,5.55908203 4.84804687,2.94931641 8.25249023,2.94931641 Z" id="Path" fill="#FFD23C"></path>
                        <path d="M8.25249023,1.85639648 C11.808252,1.85639648 14.7010254,4.74916992 14.7010254,8.30493164 C14.7010254,11.8606934 11.808252,14.7534668 8.25249023,14.7534668 C4.69672852,14.7534668 1.80395508,11.8606934 1.80395508,8.30493164 C1.80395508,4.74916992 4.69672852,1.85639648 8.25249023,1.85639648 M8.25249023,0.11015625 C3.7265625,0.11015625 0.0577148438,3.77915039 0.0577148438,8.30493164 C0.0577148438,12.8307129 3.72670898,16.499707 8.25249023,16.499707 C12.7782715,16.499707 16.4472656,12.8307129 16.4472656,8.30493164 C16.4472656,3.77900391 12.778418,0.11015625 8.25249023,0.11015625 Z" id="Shape" fill="#FAF58C"></path>
                        <path d="M7.70083008,12.665625 C6.82792969,12.6389648 6.11367187,12.4801758 5.42592773,12.1627441 L5.42592773,10.1919434 L6.73535156,10.0993652 L6.73535156,10.8666504 C6.73535156,11.1046875 6.77504883,11.1974121 6.99975586,11.2766602 C7.18491211,11.3428711 7.4362793,11.3825684 7.70083008,11.3825684 L7.70083008,8.90888672 C6.48398437,8.578125 5.38623047,8.06235352 5.38623047,6.52807617 C5.38623047,5.20532227 6.29868164,4.3190918 7.70083008,4.12060547 L7.70083008,2.90375977 L8.69296875,2.90375977 L8.69296875,4.09423828 C9.40722656,4.13393555 10.0949707,4.29272461 10.7433105,4.59682617 L10.7433105,6.46171875 L9.44692383,6.54125977 L9.44692383,5.82700195 C9.44692383,5.58896484 9.40722656,5.49624023 9.18251953,5.41699219 C9.03706055,5.37729492 8.86508789,5.33745117 8.69296875,5.32441406 L8.69296875,7.65234375 L8.70629883,7.65234375 C9.87026367,8.00961914 11.0871094,8.52553711 11.0871094,10.1260254 C11.0871094,11.5543945 10.0949707,12.4142578 8.69296875,12.6257812 L8.69296875,13.9882324 L7.70083008,13.9882324 L7.70083008,12.665625 Z M7.70083008,7.30839844 L7.70083008,5.40380859 C7.27749023,5.54926758 7.01308594,5.85336914 7.01308594,6.38261719 C7.01308594,6.85883789 7.27763672,7.11020508 7.70083008,7.30839844 Z M8.69296875,9.22661133 L8.69296875,11.2899902 C9.14282227,11.1445313 9.44692383,10.8137695 9.44692383,10.1920898 C9.44692383,9.68950195 9.14282227,9.41176758 8.69296875,9.22661133 Z" id="Shape" fill="#FFD23C"></path>
                    </g>
                </g>
            </g>
        </g>
    </g>
</svg>